# xmcd
#
# Track frame offsets: 
#        150
#        20042
#        22870
#        36695
#        52680
#        66237
#        82335
#        90760
#        103520
#        117792
#        136162
#        152350
#
# Disc length: 2269 seconds
#
# Revision: 2
# Processed by: cddbd v1.5PL3 Copyright (c) Steve Scherf et al.
# Submitted via: ExactAudioCopy v0.95a1
#
DISCID=8c08db0c
DTITLE=Anne Murray - Christmas
DYEAR=1988
DGENRE=Christmas
TTITLE0=O Come All Ye Faithful
TTITLE1=The Conventry Carol
TTITLE2=White Christmas
TTITLE3=We Three Kings
TTITLE4=The Christmas Song
TTITLE5=It Came Upon A Midnight Clear
TTITLE6=Christmas In Killarney
TTITLE7=Do You Hear What I Hear
TTITLE8=Born In Bethlehem
TTITLE9=No Room At The Inn
TTITLE10=Sweet Little Jesus Boy
TTITLE11=Mary's Little Boy Child
EXTD=
EXTT0=
EXTT1=
EXTT2=
EXTT3=
EXTT4=
EXTT5=
EXTT6=
EXTT7=
EXTT8=
EXTT9=
EXTT10=
EXTT11=
PLAYORDER=
